<?xml version="1.0" standalone="no"?><!DOCTYPE svg PUBLIC "-//W3C//DTD SVG 1.1//EN" "http://www.w3.org/Graphics/SVG/1.1/DTD/svg11.dtd"><svg t="1739597734282" class="icon" viewBox="0 0 1024 1024" version="1.1" xmlns="http://www.w3.org/2000/svg" p-id="911" xmlns:xlink="http://www.w3.org/1999/xlink" width="200" height="200"><path d="M962.673778 905.784889c-150.243556-37.888-300.430222-56.888889-450.616889-56.888889-152.007111 0.284444-303.445333 19.342222-450.616889 56.888889a49.322667 49.322667 0 0 1-61.269333-47.786667V106.496a49.493333 49.493333 0 0 1 61.269333-47.786667c147.228444 37.489778 298.609778 56.547556 450.56 56.775111a1837.340444 1837.340444 0 0 0 450.673778-56.775111 49.322667 49.322667 0 0 1 61.212444 47.672889v751.672889c0 31.800889-30.151111 55.637333-61.212444 47.729778z m-13.255111-737.166222a24.689778 24.689778 0 0 0-30.208-23.836445A1907.484444 1907.484444 0 0 1 512 189.383111a1910.044444 1910.044444 0 0 1-407.210667-44.600889 24.632889 24.632889 0 0 0-30.208 23.779556v627.256889a24.632889 24.632889 0 0 0 30.208 23.836444A1910.784 1910.784 0 0 1 512 775.111111c136.988444 0.227556 273.464889 15.189333 407.153778 44.600889a24.576 24.576 0 0 0 30.208-23.893333V168.618667z m-244.394667 357.944889h-36.067556c-3.413333 12.231111-8.192 23.779556-14.279111 34.588444l25.201778 25.144889a29.582222 29.582222 0 0 1 0 41.984l-21.105778 20.992-0.056889 0.056889a29.980444 29.980444 0 0 1-42.154666-0.056889l-25.201778-25.088c-10.865778 6.030222-22.584889 10.808889-34.816 14.279111v35.783111c0 16.270222-13.312 29.582222-29.696 29.582222h-29.752889a29.696 29.696 0 0 1-29.696-29.582222v-35.783111a167.025778 167.025778 0 0 1-35.953778-14.961778l-25.998222 25.713778v0.056889a29.866667 29.866667 0 0 1-42.097778-0.056889l-21.162666-20.992a29.639111 29.639111 0 0 1 0-41.984l26.453333-26.225778c-5.688889-10.467556-10.24-21.731556-13.653333-33.450666h-35.953778a29.639111 29.639111 0 0 1-29.696-29.582223v-29.525333-0.113778a29.582222 29.582222 0 0 1 29.696-29.468444h35.953778a161.564444 161.564444 0 0 1 14.392889-34.645334l-27.192889-26.851555a29.639111 29.639111 0 0 1 0-41.984l21.162666-21.105778v-0.056889a29.866667 29.866667 0 0 1 42.097778 0.056889l27.136 27.022222a167.822222 167.822222 0 0 1 34.816-14.279111v-35.84c0-16.270222 13.312-29.468444 29.696-29.525333h29.696a29.696 29.696 0 0 1 29.752889 29.525333v35.84c11.662222 3.242667 22.926222 7.736889 33.564444 13.482667l26.396445-26.282667v-0.056889a29.980444 29.980444 0 0 1 42.097778 0.056889l21.162666 21.105778a29.582222 29.582222 0 0 1 0 41.984l-25.884444 25.770667c6.428444 11.264 11.548444 23.267556 15.018667 35.783111h36.010666a29.866667 29.866667 0 0 1 29.866667 29.582222v29.525333a29.696 29.696 0 0 1-29.752889 29.582223zM512 393.557333a88.746667 88.746667 0 0 0-89.031111 88.632889c0 48.867556 39.822222 88.576 89.031111 88.576 49.152 0 89.088-39.708444 89.088-88.576 0-48.981333-39.936-88.632889-89.088-88.632889z m-343.267556 562.574223h2.446223s214.869333-36.693333 340.764444-36.977778c142.051556-0.284444 341.674667 36.977778 341.674667 36.977778 18.773333 0 34.133333 15.132444 34.133333 33.905777a33.962667 33.962667 0 0 1-34.133333 33.792s-256.170667-36.920889-341.617778-36.920889c-85.219556 0-340.821333 36.920889-340.821333 36.920889a34.019556 34.019556 0 0 1-35.328-32.597333 34.019556 34.019556 0 0 1 32.881777-35.100444z" fill="#666666" p-id="912"></path></svg>